<svg width="24" height="24" viewBox="0 0 24 24" fill="none" xmlns="http://www.w3.org/2000/svg">
<path d="M7.75 3.5C6.57793 3.5 5.625 4.45293 5.625 5.625V18.375C5.625 19.5471 6.57793 20.5 7.75 20.5H16.25C17.4221 20.5 18.375 19.5471 18.375 18.375V8.8125H14.125C13.5373 8.8125 13.0625 8.3377 13.0625 7.75V3.5H7.75ZM14.125 3.5V7.75H18.375L14.125 3.5ZM12.7969 11.2031V14.5932L13.8262 13.5639C14.1383 13.2518 14.643 13.2518 14.9518 13.5639C15.2605 13.876 15.2639 14.3807 14.9518 14.6895L12.5611 17.0801C12.249 17.3922 11.7443 17.3922 11.4355 17.0801L9.04492 14.6895C8.73281 14.3773 8.73281 13.8727 9.04492 13.5639C9.35703 13.2551 9.86172 13.2518 10.1705 13.5639L11.1998 14.5932V11.2031C11.1998 10.7615 11.5551 10.4062 11.9967 10.4062C12.4383 10.4062 12.7936 10.7615 12.7936 11.2031H12.7969Z" fill="white"/>
</svg>
