<svg width="222" height="45" viewBox="0 0 222 45" fill="none" xmlns="http://www.w3.org/2000/svg">
<path d="M0 40.9091C0 18.3156 18.3156 0 40.9091 0H217.909C220.168 0 222 1.83156 222 4.09091V4.09091C222 26.6844 203.684 45 181.091 45H4.09092C1.83157 45 0 43.1684 0 40.9091V40.9091Z" fill="url(#paint0_linear_49_2371)"/>
<path d="M40.9091 1H217.909C219.616 1 221 2.38385 221 4.09091C221 26.1321 203.132 44 181.091 44H4.09092C2.38385 44 1 42.6161 1 40.9091C1 18.8679 18.8679 1 40.9091 1Z" stroke="url(#paint1_linear_49_2371)" stroke-opacity="0.5" stroke-width="2"/>
<defs>
<linearGradient id="paint0_linear_49_2371" x1="0" y1="0" x2="223.598" y2="10.2974" gradientUnits="userSpaceOnUse">
<stop stop-color="#6FFFE5"/>
<stop offset="1" stop-color="#007362"/>
</linearGradient>
<linearGradient id="paint1_linear_49_2371" x1="0" y1="0" x2="223.598" y2="10.2974" gradientUnits="userSpaceOnUse">
<stop stop-color="#6DD1C2"/>
<stop offset="0.936828" stop-color="#FFF64A"/>
</linearGradient>
</defs>
</svg>
