<svg width="48" height="48" viewBox="0 0 48 48" fill="none" xmlns="http://www.w3.org/2000/svg">
<g clip-path="url(#clip0_268_1474)">
<path d="M25.4172 6.00954C28.1516 10.6667 25.1231 17.519 18.663 21.3101C12.1975 25.1011 4.74057 24.3985 2.01164 19.7413C-0.72273 15.0842 2.30033 8.2319 8.76588 4.44082C15.2314 0.64973 22.6883 1.35239 25.4227 6.00954H25.4172Z" fill="#FCC200"/>
<path d="M46.9926 12.0884C49.7269 16.751 46.7039 23.5978 40.2383 27.3944C33.7728 31.1854 26.3159 30.4828 23.5815 25.8256C20.8472 21.163 23.8702 14.3162 30.3358 10.5197C36.8013 6.72859 44.2582 7.43125 46.9926 12.0884Z" fill="#0049A0"/>
<path d="M24.4314 27.269C27.1658 31.9262 24.1427 38.7784 17.6772 42.5695C11.2116 46.3606 3.75475 45.6579 1.02037 41.0008C-1.714 36.3436 1.30906 29.4914 7.77461 25.7003C14.2401 21.9092 21.697 22.6118 24.4314 27.269Z" fill="#A01D8C"/>
<path d="M24.9433 15.3565C19.7796 13.8041 16.8873 13.0579 16.7293 9.88772C16.5605 6.51605 22.4323 3.22064 22.4323 3.22064C22.4323 3.22064 18.0747 3.80891 15.2859 7.71983C12.5569 11.5382 14.9264 14.2507 18.1128 15.1549C21.3048 16.0591 22.7155 15.5798 25.0741 16.5167C26.7136 17.1649 27.1385 18.3904 26.9369 20.1008C26.7408 21.7621 26.158 25.3625 21.3647 28.4019C16.8491 31.2616 12.1974 32.8739 7.81808 34.0123C5.2798 34.6714 2.34388 35.1344 0.186887 35.4067C0.186887 35.4122 0.18144 35.4231 0.175993 35.4285C-0.210742 37.4112 0.0289247 39.3503 1.00393 41.0117C1.39611 41.6762 1.88634 42.259 2.45282 42.7601C2.47461 42.7765 2.50185 42.7983 2.52363 42.8146C2.53453 42.8146 2.55632 42.8037 2.55087 42.8092C11.3532 40.9626 15.9232 38.2337 19.273 36.3491C22.0837 34.764 26.4304 30.9566 29.0503 26.3375C32.4002 20.4385 28.2224 16.3533 24.9379 15.3674L24.9433 15.3565Z" fill="white"/>
</g>
<defs>
<clipPath id="clip0_268_1474">
<rect width="48" height="48" fill="white"/>
</clipPath>
</defs>
</svg>
