<svg width="128" height="50" viewBox="0 0 128 50" fill="none" xmlns="http://www.w3.org/2000/svg">
<path d="M53.5695 26.5411L52.5941 27.7507C52.1161 27.2044 51.287 26.3851 50.0872 25.2926V30.911H48.4875V25.078C47.3365 26.8923 46.1075 28.3164 44.7907 29.3503C44.4591 28.8919 44.0884 28.492 43.6885 28.1603C44.9955 27.3117 46.2441 26.0339 47.4243 24.3172C47.6877 23.927 47.9218 23.5466 48.1364 23.1759H44.1664V21.7908H48.4875V19.4596H44.1079V18.0745H54.3596V19.4596H50.0872V21.7908H54.1937V23.1759H50.0872V23.7124C51.2577 24.5805 52.3795 25.4877 53.4524 26.4533C53.4914 26.4826 53.5305 26.5119 53.5597 26.5411H53.5695ZM54.106 13.0706V14.4557H44.4298V13.0706H48.4875V10.8466H50.0872V13.0706H54.106ZM47.9706 17.6648L46.6147 18.055C46.5172 17.0796 46.2246 16.0164 45.7466 14.8556L47.0244 14.5337C47.5121 15.5872 47.834 16.6309 47.9706 17.6648ZM51.5504 17.9867L50.2335 17.6843C50.7993 16.4163 51.1602 15.3531 51.3358 14.4849L52.8477 14.8263C52.2722 16.348 51.843 17.4015 51.5504 17.977V17.9867ZM64.1138 18.1623V19.7132H61.6264V30.8135H60.0268V19.7132H56.7201V20.2497C56.7201 24.7269 55.7349 28.1213 53.7646 30.4428C53.5792 30.6574 53.3939 30.8622 53.1988 31.0476C52.994 30.7062 52.6623 30.355 52.1844 30.0136C52.1259 29.9746 52.0771 29.9356 52.0381 29.9063C53.9206 28.0628 54.9448 25.3511 55.1009 21.7616C55.1301 21.3031 55.1399 20.7862 55.1399 20.2302V12.5439L56.3494 12.9145C59.1294 12.3 61.168 11.666 62.4848 11.0125L63.8211 12.2415C62.3092 12.9145 59.939 13.5778 56.7201 14.2313V18.1623H64.104H64.1138Z" fill="white"/>
<path d="M71.7024 10.9734H73.2143C75.1262 12.4171 76.7161 13.7729 77.9841 15.0507C78.0134 15.0897 78.0329 15.119 78.0524 15.1385L76.9697 16.3675C75.7504 15.0019 74.3751 13.7241 72.8632 12.5244C72.7949 12.4853 72.7364 12.4366 72.6876 12.3976C71.878 13.4217 71.1269 14.2801 70.4246 14.9629H75.5163V16.1724H70.1418V15.2458C69.2054 16.1237 68.1422 16.9528 66.9424 17.7233C66.7083 17.3332 66.3962 16.9918 65.9962 16.6894C65.9572 16.6601 65.928 16.6406 65.9084 16.6211C68.1519 15.2848 69.9662 13.5778 71.3513 11.5002C71.4781 11.3148 71.5951 11.1295 71.6927 10.9637L71.7024 10.9734ZM76.9697 23.4978H69.5663C69.5273 23.927 69.459 24.3855 69.3712 24.8537H77.2916V30.7452H75.848V29.9941H70.7563V30.9013H69.3322V25.156C68.9127 27.2825 68.1422 29.048 67.0204 30.4428C66.8156 30.1209 66.4839 29.8088 66.0255 29.4967C65.9865 29.4674 65.9475 29.4479 65.9182 29.4284C67.4301 27.5848 68.2007 24.8634 68.2299 21.2641V17.3819H76.9697V23.4881V23.4978ZM69.6736 22.2493H75.4773V20.9715H69.6931V20.991C69.6931 21.5372 69.6931 21.9567 69.6736 22.2395V22.2493ZM75.4773 18.6207H69.6931V19.8985H75.4773V18.6207ZM75.848 26.1315H70.7563V28.7261H75.848V26.1315ZM80.3349 13.412V25.5657H78.784V13.412H80.3349ZM83.7001 11.188H85.2998V28.7651C85.2998 29.682 85.0364 30.2867 84.5195 30.5794C84.4512 30.6086 84.3829 30.6379 84.3244 30.6672C83.7489 30.872 82.4711 30.9598 80.5007 30.95C80.4324 30.4916 80.2374 29.9453 79.9155 29.3113C81.2518 29.3698 82.3345 29.3796 83.1539 29.3308C83.4953 29.3016 83.6806 29.126 83.6903 28.7944V11.188H83.7001Z" fill="white"/>
<path d="M94.9564 30.2477V14.1826H91.2595L92.469 12.3H97.0633V30.2477H94.9564Z" fill="white"/>
<path d="M110.495 30.7354C108.544 30.7354 107.003 29.8966 105.871 28.2286C104.74 26.5606 104.184 24.2587 104.184 21.3226C104.184 18.3866 104.74 16.1139 105.862 14.4459C106.983 12.778 108.505 11.9391 110.446 11.9391C112.387 11.9391 113.977 12.7682 115.089 14.4167C116.201 16.0651 116.757 18.3671 116.757 21.3226C116.757 24.2782 116.201 26.5704 115.089 28.2384C113.977 29.9063 112.446 30.7354 110.485 30.7354H110.495ZM110.466 28.9602C111.792 28.9602 112.807 28.3164 113.489 27.0191C114.182 25.7315 114.523 23.8392 114.523 21.3421C114.523 18.8451 114.182 16.943 113.489 15.6457C112.797 14.3484 111.792 13.6949 110.466 13.6949C109.139 13.6949 108.193 14.3581 107.481 15.6945C106.769 17.0308 106.408 18.8938 106.408 21.2934C106.408 23.6929 106.769 25.595 107.481 26.9411C108.193 28.2871 109.188 28.9602 110.466 28.9602Z" fill="white"/>
<path d="M124.873 30.2477V14.1826H121.176L122.385 12.3H126.98V30.2477H124.873Z" fill="white"/>
<path d="M43.386 43.7865L44.2834 43.3671C44.3712 43.6793 44.5272 43.9134 44.7516 44.0694C44.9759 44.2255 45.2685 44.3133 45.6197 44.3133C45.9513 44.3133 46.2147 44.2157 46.4098 44.0304C46.6049 43.8451 46.7024 43.6012 46.7024 43.2891C46.7024 42.8794 46.3708 42.5185 45.6977 42.2064C45.6002 42.1576 45.5319 42.1283 45.4831 42.0991C44.7223 41.7284 44.2151 41.3968 43.9615 41.0944C43.7079 40.792 43.5811 40.4311 43.5811 39.9922C43.5811 39.4264 43.7762 38.9777 44.1566 38.6266C44.537 38.2754 45.0344 38.0999 45.6587 38.0999C46.1659 38.0999 46.5951 38.1974 46.9365 38.3925C47.2779 38.5876 47.512 38.8704 47.6486 39.2411L46.7707 39.6898C46.6341 39.4752 46.4781 39.3191 46.3122 39.2118C46.1464 39.1143 45.9611 39.0558 45.7465 39.0558C45.4441 39.0558 45.21 39.1338 45.0247 39.2899C44.8491 39.4459 44.7613 39.6605 44.7613 39.9239C44.7613 40.3433 45.1515 40.7237 45.9318 41.0846C45.9904 41.1139 46.0391 41.1334 46.0684 41.1529C46.7512 41.465 47.2194 41.7772 47.473 42.0698C47.7266 42.3722 47.8534 42.7428 47.8534 43.1915C47.8534 43.8451 47.6486 44.362 47.2389 44.7522C46.8292 45.1424 46.2732 45.3277 45.5709 45.3277C44.9857 45.3277 44.498 45.1912 44.1273 44.918C43.7566 44.6449 43.503 44.2645 43.386 43.7573V43.7865Z" fill="white"/>
<path d="M54.6814 39.2216V45.1716H53.5596V39.2216H51.7258V38.2657H56.5054V39.2216H54.6814Z" fill="white"/>
<path d="M64.5917 45.1619L63.8114 43.3866H61.0802L60.2804 45.1619H59.1001L62.436 37.9926L65.772 45.1619H64.5917ZM61.4899 42.4502H63.4115L62.7092 40.8798C62.6701 40.7823 62.6214 40.6652 62.5823 40.5286C62.5433 40.3921 62.4946 40.2555 62.4555 40.0897C62.4165 40.236 62.3775 40.3823 62.3385 40.5091C62.2995 40.6359 62.2507 40.7627 62.2117 40.87L61.5094 42.4405L61.4899 42.4502Z" fill="white"/>
<path d="M70.8537 42.0796V45.1619H69.8003V38.2657H71.361C71.8194 38.2657 72.1706 38.2949 72.4242 38.3535C72.6778 38.412 72.8924 38.5095 73.068 38.6461C73.2825 38.8119 73.4484 39.0265 73.5654 39.2899C73.6825 39.5532 73.741 39.8458 73.741 40.158C73.741 40.714 73.6044 41.1432 73.3411 41.4553C73.0777 41.7674 72.6778 41.9528 72.1608 42.021L74.5311 45.1619H73.263L70.9708 42.0796H70.844H70.8537ZM70.922 41.2114H71.1269C71.7219 41.2114 72.112 41.1432 72.3071 41.0066C72.5022 40.87 72.5997 40.6262 72.5997 40.275C72.5997 39.8946 72.4925 39.6313 72.2876 39.4752C72.0828 39.3191 71.6926 39.2411 71.1269 39.2411H70.922V41.2212V41.2114Z" fill="white"/>
<path d="M80.8129 39.2216V45.1716H79.6912V39.2216H77.8574V38.2657H82.637V39.2216H80.8129Z" fill="white"/>
<path d="M86.8506 38.2657H87.9626V42.4502C87.9626 43.0745 88.1089 43.5427 88.3918 43.8548C88.6746 44.167 89.1136 44.323 89.6793 44.323C90.245 44.323 90.6742 44.167 90.9669 43.8548C91.2497 43.5427 91.396 43.0745 91.396 42.4502V38.2657H92.5178V42.5575C92.5178 43.4939 92.2837 44.1865 91.8155 44.6547C91.3473 45.1229 90.6352 45.3472 89.6891 45.3472C88.7429 45.3472 88.0308 45.1131 87.5626 44.6547C87.0944 44.1962 86.8603 43.4939 86.8603 42.5575V38.2657H86.8506Z" fill="white"/>
<path d="M98.4875 42.0698V45.1619H97.4341V38.2657H99.1313C99.6288 38.2657 99.9994 38.2949 100.243 38.3437C100.487 38.3925 100.682 38.49 100.858 38.6168C101.072 38.7826 101.248 38.9972 101.365 39.2704C101.492 39.5435 101.55 39.8361 101.55 40.1677C101.55 40.4994 101.492 40.792 101.365 41.0749C101.248 41.348 101.072 41.5626 100.858 41.7284C100.682 41.8552 100.477 41.943 100.243 42.0015C100.009 42.0601 99.6385 42.0796 99.1313 42.0796H98.4875V42.0698ZM98.5558 41.1529H98.8387C99.463 41.1529 99.8726 41.0846 100.087 40.9481C100.292 40.8115 100.399 40.5774 100.399 40.236C100.399 39.8654 100.292 39.6118 100.068 39.4557C99.8434 39.3094 99.4337 39.2313 98.8484 39.2313H98.5656V41.1529H98.5558Z" fill="white"/>
<path d="M107.705 45.1619V39.2118H106.281L106.71 38.3242H108.729V45.1521H107.705V45.1619Z" fill="white"/>
<path d="M119.752 41.8455C119.752 42.9379 119.527 43.7963 119.088 44.4206C118.649 45.0448 118.035 45.3472 117.264 45.3472C116.494 45.3472 115.869 45.0351 115.44 44.4108C115.011 43.7865 114.787 42.9087 114.787 41.7674C114.787 40.6262 115.011 39.7678 115.45 39.1338C115.889 38.5095 116.503 38.1876 117.284 38.1876C118.064 38.1876 118.688 38.4998 119.108 39.1338C119.537 39.7678 119.752 40.6652 119.752 41.8357V41.8455ZM117.245 44.3815C117.703 44.3815 118.045 44.167 118.279 43.728C118.513 43.2891 118.62 42.6355 118.62 41.7577C118.62 40.8798 118.503 40.2653 118.279 39.8166C118.054 39.3679 117.723 39.1533 117.284 39.1533C116.845 39.1533 116.484 39.3776 116.25 39.8166C116.016 40.2555 115.899 40.9091 115.899 41.7772C115.899 42.6453 116.016 43.2598 116.25 43.7085C116.484 44.1572 116.815 44.3815 117.245 44.3815Z" fill="white"/>
<path d="M126.111 45.1619V39.2118H124.687L125.116 38.3242H127.136V45.1521H126.111V45.1619Z" fill="white"/>
<path d="M6.72973 4.62346C-1.34674 11.5392 -2.28314 23.6929 4.62282 31.7694L31.2225 8.99334C32.7442 7.68628 32.6856 5.32576 31.1055 4.08698C24.0434 -1.4534 13.8113 -1.44365 6.72973 4.62346Z" fill="#00BFA3"/>
<path style="mix-blend-mode:hard-light" d="M15.0988 4.62361C17.5861 2.4972 20.4539 1.13161 23.4387 0.468326C17.7325 -0.799719 11.5093 0.526851 6.72973 4.62361C-1.34674 11.5393 -2.28314 23.6931 4.62282 31.7695L17.4789 20.7668C12.4067 14.2803 8.45622 10.3201 15.0988 4.63337V4.62361Z" fill="url(#paint0_linear_49_2618)"/>
<path d="M29.018 18.2306L2.41834 41.0066C0.896684 42.3137 0.955209 44.6742 2.53539 45.913C9.60718 51.4533 19.8296 51.4436 26.9209 45.3667C34.9973 38.451 35.9338 26.2973 29.018 18.2306Z" fill="#00A38B"/>
<path style="mix-blend-mode:hard-light" d="M29.018 18.2306L16.162 29.2333C20.3172 34.4615 24.7652 38.9387 18.542 45.3667C16.2693 47.7175 13.1869 48.8587 10.2021 49.522C15.9084 50.7901 22.1315 49.4635 26.9111 45.3667C34.9876 38.451 35.924 26.2973 29.0082 18.2306H29.018Z" fill="url(#paint1_linear_49_2618)"/>
<defs>
<linearGradient id="paint0_linear_49_2618" x1="11.7239" y1="31.7695" x2="11.7239" y2="0.000125132" gradientUnits="userSpaceOnUse">
<stop stop-color="#D4FF78"/>
<stop offset="1" stop-color="#2EA7E0" stop-opacity="0"/>
</linearGradient>
<linearGradient id="paint1_linear_49_2618" x1="21.9267" y1="49.9902" x2="21.9267" y2="18.2306" gradientUnits="userSpaceOnUse">
<stop stop-color="#D4FF78"/>
<stop offset="1" stop-color="#2EA7E0" stop-opacity="0"/>
</linearGradient>
</defs>
</svg>
