<svg width="56" height="50" viewBox="0 0 56 50" fill="none" xmlns="http://www.w3.org/2000/svg">
<g clip-path="url(#clip0_108_1009)">
<path d="M29.5478 4.66113C32.7265 10.0751 29.2058 18.041 21.6959 22.4481C14.1796 26.8553 5.51092 26.0385 2.33851 20.6245C-0.840229 15.2105 2.67411 7.24465 10.1904 2.83747C17.7066 -1.5697 26.3753 -0.752856 29.5541 4.66113H29.5478Z" fill="#FCC200"/>
<path d="M54.6293 11.7278C57.808 17.1482 54.2937 25.1077 46.7774 29.5212C39.2612 33.9284 30.5924 33.1115 27.4137 27.6975C24.235 22.2772 27.7493 14.3177 35.2656 9.90418C42.7818 5.49701 51.4505 6.31386 54.6293 11.7278Z" fill="#0049A0"/>
<path d="M28.4017 29.3755C31.5805 34.7895 28.0661 42.7553 20.5499 47.1625C13.0336 51.5697 4.3649 50.7528 1.18617 45.3388C-1.99257 39.9248 1.52177 31.959 9.03803 27.5518C16.5543 23.1447 25.223 23.9615 28.4017 29.3755Z" fill="#A01D8C"/>
<path d="M28.9969 15.5271C22.994 13.7224 19.6316 12.8549 19.448 9.16962C19.2517 5.25002 26.0778 1.41907 26.0778 1.41907C26.0778 1.41907 21.012 2.10294 17.77 6.64942C14.5976 11.0883 17.3521 14.2417 21.0564 15.2928C24.767 16.3439 26.407 15.7867 29.1488 16.8758C31.0548 17.6294 31.5487 19.0541 31.3144 21.0424C31.0865 22.9737 30.4089 27.1593 24.8367 30.6926C19.5873 34.017 14.1796 35.8913 9.0886 37.2147C6.13782 37.9809 2.72479 38.5191 0.217258 38.8357C0.217258 38.8421 0.210925 38.8547 0.204593 38.8611C-0.244989 41.166 0.0336253 43.4202 1.16708 45.3515C1.62299 46.124 2.19289 46.8016 2.85143 47.3841C2.87676 47.4031 2.90842 47.4285 2.93375 47.4475C2.94641 47.4475 2.97174 47.4348 2.96541 47.4411C13.1982 45.2945 18.5108 42.1221 22.4051 39.9312C25.6725 38.0885 30.7256 33.6624 33.7713 28.2927C37.6656 21.435 32.8088 16.6859 28.9905 15.5398L28.9969 15.5271Z" fill="white"/>
</g>
<defs>
<clipPath id="clip0_108_1009">
<rect width="56" height="50" fill="white"/>
</clipPath>
</defs>
</svg>
