<svg width="94" height="21" viewBox="0 0 94 21" fill="none" xmlns="http://www.w3.org/2000/svg">
<g id="_&#229;&#136;&#134;&#233;&#155;&#162;&#230;&#168;&#161;&#229;&#188;&#143;" clip-path="url(#clip0_74_398)">
<path id="Vector" d="M43.8 0.129883H49.25L57.93 20.6699H51.87L50.38 17.0299H42.52L41.06 20.6699H35.12L43.8 0.129883ZM48.75 12.6299L46.48 6.82988L44.18 12.6299H48.75Z" fill="#232323"/>
<path id="Vector_2" d="M21.0499 0.8C21.0499 1.24 20.69 1.6 20.25 1.6C19.81 1.6 19.45 1.24 19.45 0.8C19.45 0.36 19.81 0 20.25 0C20.69 0 21.0499 0.36 21.0499 0.8Z" fill="#2BB6B1"/>
<path id="Vector_3" d="M23.18 0.8C23.18 1.24 22.82 1.6 22.38 1.6C21.94 1.6 21.58 1.24 21.58 0.8C21.58 0.36 21.94 0 22.38 0C22.82 0 23.18 0.36 23.18 0.8Z" fill="#2BB6B1"/>
<path id="Vector_4" d="M25.2999 0.8C25.2999 1.24 24.94 1.6 24.5 1.6C24.06 1.6 23.7 1.24 23.7 0.8C23.7 0.36 24.06 0 24.5 0C24.94 0 25.2999 0.36 25.2999 0.8Z" fill="#2BB6B1"/>
<path id="Vector_5" d="M27.43 0.8C27.43 1.24 27.07 1.6 26.63 1.6C26.19 1.6 25.83 1.24 25.83 0.8C25.83 0.36 26.19 0 26.63 0C27.07 0 27.43 0.36 27.43 0.8Z" fill="#2BB6B1"/>
<path id="Vector_6" d="M29.56 0.8C29.56 1.24 29.2 1.6 28.76 1.6C28.32 1.6 27.96 1.24 27.96 0.8C27.96 0.36 28.32 0 28.76 0C29.2 0 29.56 0.36 29.56 0.8Z" fill="#2BB6B1"/>
<path id="Vector_7" d="M31.69 0.8C31.69 1.24 31.33 1.6 30.89 1.6C30.45 1.6 30.09 1.24 30.09 0.8C30.09 0.36 30.45 0 30.89 0C31.33 0 31.69 0.36 31.69 0.8Z" fill="#2BB6B1"/>
<path id="Vector_8" d="M33.82 0.8C33.82 1.24 33.46 1.6 33.02 1.6C32.58 1.6 32.22 1.24 32.22 0.8C32.22 0.36 32.58 0 33.02 0C33.46 0 33.82 0.36 33.82 0.8Z" fill="#2BB6B1"/>
<path id="Vector_9" d="M35.94 0.8C35.94 1.24 35.58 1.6 35.14 1.6C34.7 1.6 34.34 1.24 34.34 0.8C34.34 0.36 34.7 0 35.14 0C35.58 0 35.94 0.36 35.94 0.8Z" fill="#2BB6B1"/>
<path id="Vector_10" d="M38.07 0.8C38.07 1.24 37.71 1.6 37.27 1.6C36.83 1.6 36.47 1.24 36.47 0.8C36.47 0.36 36.83 0 37.27 0C37.71 0 38.07 0.36 38.07 0.8Z" fill="#2BB6B1"/>
<path id="Vector_11" d="M21.0499 2.92988C21.0499 3.36988 20.69 3.72988 20.25 3.72988C19.81 3.72988 19.45 3.36988 19.45 2.92988C19.45 2.48988 19.81 2.12988 20.25 2.12988C20.69 2.12988 21.0499 2.48988 21.0499 2.92988Z" fill="#2BB6B1"/>
<path id="Vector_12" d="M23.18 2.92988C23.18 3.36988 22.82 3.72988 22.38 3.72988C21.94 3.72988 21.58 3.36988 21.58 2.92988C21.58 2.48988 21.94 2.12988 22.38 2.12988C22.82 2.12988 23.18 2.48988 23.18 2.92988Z" fill="#2BB6B1"/>
<path id="Vector_13" d="M24.5 3.72988C24.9418 3.72988 25.2999 3.37171 25.2999 2.92988C25.2999 2.48805 24.9418 2.12988 24.5 2.12988C24.0581 2.12988 23.7 2.48805 23.7 2.92988C23.7 3.37171 24.0581 3.72988 24.5 3.72988Z" fill="#2BB6B1"/>
<path id="Vector_14" d="M26.63 3.72988C27.0718 3.72988 27.43 3.37171 27.43 2.92988C27.43 2.48805 27.0718 2.12988 26.63 2.12988C26.1881 2.12988 25.83 2.48805 25.83 2.92988C25.83 3.37171 26.1881 3.72988 26.63 3.72988Z" fill="#2BB6B1"/>
<path id="Vector_15" d="M28.76 3.72988C29.2018 3.72988 29.56 3.37171 29.56 2.92988C29.56 2.48805 29.2018 2.12988 28.76 2.12988C28.3181 2.12988 27.96 2.48805 27.96 2.92988C27.96 3.37171 28.3181 3.72988 28.76 3.72988Z" fill="#2BB6B1"/>
<path id="Vector_16" d="M30.89 3.72988C31.3318 3.72988 31.69 3.37171 31.69 2.92988C31.69 2.48805 31.3318 2.12988 30.89 2.12988C30.4481 2.12988 30.09 2.48805 30.09 2.92988C30.09 3.37171 30.4481 3.72988 30.89 3.72988Z" fill="#2BB6B1"/>
<path id="Vector_17" d="M33.01 3.72988C33.4518 3.72988 33.81 3.37171 33.81 2.92988C33.81 2.48805 33.4518 2.12988 33.01 2.12988C32.5681 2.12988 32.21 2.48805 32.21 2.92988C32.21 3.37171 32.5681 3.72988 33.01 3.72988Z" fill="#2BB6B1"/>
<path id="Vector_18" d="M35.14 3.72988C35.5818 3.72988 35.94 3.37171 35.94 2.92988C35.94 2.48805 35.5818 2.12988 35.14 2.12988C34.6981 2.12988 34.34 2.48805 34.34 2.92988C34.34 3.37171 34.6981 3.72988 35.14 3.72988Z" fill="#2BB6B1"/>
<path id="Vector_19" d="M37.27 3.72988C37.7118 3.72988 38.07 3.37171 38.07 2.92988C38.07 2.48805 37.7118 2.12988 37.27 2.12988C36.8281 2.12988 36.47 2.48805 36.47 2.92988C36.47 3.37171 36.8281 3.72988 37.27 3.72988Z" fill="#2BB6B1"/>
<path id="Vector_20" d="M21.0499 5.06001C21.0499 5.50001 20.69 5.86001 20.25 5.86001C19.81 5.86001 19.45 5.50001 19.45 5.06001C19.45 4.62001 19.81 4.26001 20.25 4.26001C20.69 4.26001 21.0499 4.62001 21.0499 5.06001Z" fill="#2BB6B1"/>
<path id="Vector_21" d="M23.18 5.06001C23.18 5.50001 22.82 5.86001 22.38 5.86001C21.94 5.86001 21.58 5.50001 21.58 5.06001C21.58 4.62001 21.94 4.26001 22.38 4.26001C22.82 4.26001 23.18 4.62001 23.18 5.06001Z" fill="#2BB6B1"/>
<path id="Vector_22" d="M24.5 5.86001C24.9418 5.86001 25.2999 5.50184 25.2999 5.06001C25.2999 4.61818 24.9418 4.26001 24.5 4.26001C24.0581 4.26001 23.7 4.61818 23.7 5.06001C23.7 5.50184 24.0581 5.86001 24.5 5.86001Z" fill="#2BB6B1"/>
<path id="Vector_23" d="M26.63 5.86001C27.0718 5.86001 27.43 5.50184 27.43 5.06001C27.43 4.61818 27.0718 4.26001 26.63 4.26001C26.1881 4.26001 25.83 4.61818 25.83 5.06001C25.83 5.50184 26.1881 5.86001 26.63 5.86001Z" fill="#2BB6B1"/>
<path id="Vector_24" d="M28.76 5.86001C29.2018 5.86001 29.56 5.50184 29.56 5.06001C29.56 4.61818 29.2018 4.26001 28.76 4.26001C28.3181 4.26001 27.96 4.61818 27.96 5.06001C27.96 5.50184 28.3181 5.86001 28.76 5.86001Z" fill="#2BB6B1"/>
<path id="Vector_25" d="M30.89 5.86001C31.3318 5.86001 31.69 5.50184 31.69 5.06001C31.69 4.61818 31.3318 4.26001 30.89 4.26001C30.4481 4.26001 30.09 4.61818 30.09 5.06001C30.09 5.50184 30.4481 5.86001 30.89 5.86001Z" fill="#2BB6B1"/>
<path id="Vector_26" d="M33.01 5.86001C33.4518 5.86001 33.81 5.50184 33.81 5.06001C33.81 4.61818 33.4518 4.26001 33.01 4.26001C32.5681 4.26001 32.21 4.61818 32.21 5.06001C32.21 5.50184 32.5681 5.86001 33.01 5.86001Z" fill="#2BB6B1"/>
<path id="Vector_27" d="M35.14 5.86001C35.5818 5.86001 35.94 5.50184 35.94 5.06001C35.94 4.61818 35.5818 4.26001 35.14 4.26001C34.6981 4.26001 34.34 4.61818 34.34 5.06001C34.34 5.50184 34.6981 5.86001 35.14 5.86001Z" fill="#2BB6B1"/>
<path id="Vector_28" d="M37.27 5.86001C37.7118 5.86001 38.07 5.50184 38.07 5.06001C38.07 4.61818 37.7118 4.26001 37.27 4.26001C36.8281 4.26001 36.47 4.61818 36.47 5.06001C36.47 5.50184 36.8281 5.86001 37.27 5.86001Z" fill="#2BB6B1"/>
<path id="Vector_29" d="M26.63 7.98989C27.0718 7.98989 27.43 7.63172 27.43 7.18989C27.43 6.74806 27.0718 6.38989 26.63 6.38989C26.1881 6.38989 25.83 6.74806 25.83 7.18989C25.83 7.63172 26.1881 7.98989 26.63 7.98989Z" fill="#2BB6B1"/>
<path id="Vector_30" d="M28.76 7.98989C29.2018 7.98989 29.56 7.63172 29.56 7.18989C29.56 6.74806 29.2018 6.38989 28.76 6.38989C28.3181 6.38989 27.96 6.74806 27.96 7.18989C27.96 7.63172 28.3181 7.98989 28.76 7.98989Z" fill="#2BB6B1"/>
<path id="Vector_31" d="M30.89 7.98989C31.3318 7.98989 31.69 7.63172 31.69 7.18989C31.69 6.74806 31.3318 6.38989 30.89 6.38989C30.4481 6.38989 30.09 6.74806 30.09 7.18989C30.09 7.63172 30.4481 7.98989 30.89 7.98989Z" fill="#2BB6B1"/>
<path id="Vector_32" d="M26.63 10.11C27.0718 10.11 27.43 9.75184 27.43 9.31001C27.43 8.86818 27.0718 8.51001 26.63 8.51001C26.1881 8.51001 25.83 8.86818 25.83 9.31001C25.83 9.75184 26.1881 10.11 26.63 10.11Z" fill="#2BB6B1"/>
<path id="Vector_33" d="M28.76 10.11C29.2018 10.11 29.56 9.75184 29.56 9.31001C29.56 8.86818 29.2018 8.51001 28.76 8.51001C28.3181 8.51001 27.96 8.86818 27.96 9.31001C27.96 9.75184 28.3181 10.11 28.76 10.11Z" fill="#2BB6B1"/>
<path id="Vector_34" d="M30.89 10.11C31.3318 10.11 31.69 9.75184 31.69 9.31001C31.69 8.86818 31.3318 8.51001 30.89 8.51001C30.4481 8.51001 30.09 8.86818 30.09 9.31001C30.09 9.75184 30.4481 10.11 30.89 10.11Z" fill="#2BB6B1"/>
<path id="Vector_35" d="M26.63 12.2399C27.0718 12.2399 27.43 11.8817 27.43 11.4399C27.43 10.9981 27.0718 10.6399 26.63 10.6399C26.1881 10.6399 25.83 10.9981 25.83 11.4399C25.83 11.8817 26.1881 12.2399 26.63 12.2399Z" fill="#2BB6B1"/>
<path id="Vector_36" d="M28.76 12.2399C29.2018 12.2399 29.56 11.8817 29.56 11.4399C29.56 10.9981 29.2018 10.6399 28.76 10.6399C28.3181 10.6399 27.96 10.9981 27.96 11.4399C27.96 11.8817 28.3181 12.2399 28.76 12.2399Z" fill="#2BB6B1"/>
<path id="Vector_37" d="M30.89 12.2399C31.3318 12.2399 31.69 11.8817 31.69 11.4399C31.69 10.9981 31.3318 10.6399 30.89 10.6399C30.4481 10.6399 30.09 10.9981 30.09 11.4399C30.09 11.8817 30.4481 12.2399 30.89 12.2399Z" fill="#2BB6B1"/>
<path id="Vector_38" d="M26.63 14.37C27.0718 14.37 27.43 14.0118 27.43 13.57C27.43 13.1282 27.0718 12.77 26.63 12.77C26.1881 12.77 25.83 13.1282 25.83 13.57C25.83 14.0118 26.1881 14.37 26.63 14.37Z" fill="#2BB6B1"/>
<path id="Vector_39" d="M28.76 14.37C29.2018 14.37 29.56 14.0118 29.56 13.57C29.56 13.1282 29.2018 12.77 28.76 12.77C28.3181 12.77 27.96 13.1282 27.96 13.57C27.96 14.0118 28.3181 14.37 28.76 14.37Z" fill="#2BB6B1"/>
<path id="Vector_40" d="M30.89 14.37C31.3318 14.37 31.69 14.0118 31.69 13.57C31.69 13.1282 31.3318 12.77 30.89 12.77C30.4481 12.77 30.09 13.1282 30.09 13.57C30.09 14.0118 30.4481 14.37 30.89 14.37Z" fill="#2BB6B1"/>
<path id="Vector_41" d="M26.63 16.4999C27.0718 16.4999 27.43 16.1417 27.43 15.6999C27.43 15.2581 27.0718 14.8999 26.63 14.8999C26.1881 14.8999 25.83 15.2581 25.83 15.6999C25.83 16.1417 26.1881 16.4999 26.63 16.4999Z" fill="#2BB6B1"/>
<path id="Vector_42" d="M28.76 16.4999C29.2018 16.4999 29.56 16.1417 29.56 15.6999C29.56 15.2581 29.2018 14.8999 28.76 14.8999C28.3181 14.8999 27.96 15.2581 27.96 15.6999C27.96 16.1417 28.3181 16.4999 28.76 16.4999Z" fill="#2BB6B1"/>
<path id="Vector_43" d="M30.89 16.4999C31.3318 16.4999 31.69 16.1417 31.69 15.6999C31.69 15.2581 31.3318 14.8999 30.89 14.8999C30.4481 14.8999 30.09 15.2581 30.09 15.6999C30.09 16.1417 30.4481 16.4999 30.89 16.4999Z" fill="#2BB6B1"/>
<path id="Vector_44" d="M26.63 18.63C27.0718 18.63 27.43 18.2719 27.43 17.83C27.43 17.3882 27.0718 17.03 26.63 17.03C26.1881 17.03 25.83 17.3882 25.83 17.83C25.83 18.2719 26.1881 18.63 26.63 18.63Z" fill="#2BB6B1"/>
<path id="Vector_45" d="M28.76 18.63C29.2018 18.63 29.56 18.2719 29.56 17.83C29.56 17.3882 29.2018 17.03 28.76 17.03C28.3181 17.03 27.96 17.3882 27.96 17.83C27.96 18.2719 28.3181 18.63 28.76 18.63Z" fill="#2BB6B1"/>
<path id="Vector_46" d="M30.89 18.63C31.3318 18.63 31.69 18.2719 31.69 17.83C31.69 17.3882 31.3318 17.03 30.89 17.03C30.4481 17.03 30.09 17.3882 30.09 17.83C30.09 18.2719 30.4481 18.63 30.89 18.63Z" fill="#2BB6B1"/>
<path id="Vector_47" d="M26.63 20.7499C27.0718 20.7499 27.43 20.3917 27.43 19.9499C27.43 19.5081 27.0718 19.1499 26.63 19.1499C26.1881 19.1499 25.83 19.5081 25.83 19.9499C25.83 20.3917 26.1881 20.7499 26.63 20.7499Z" fill="#2BB6B1"/>
<path id="Vector_48" d="M28.76 20.7499C29.2018 20.7499 29.56 20.3917 29.56 19.9499C29.56 19.5081 29.2018 19.1499 28.76 19.1499C28.3181 19.1499 27.96 19.5081 27.96 19.9499C27.96 20.3917 28.3181 20.7499 28.76 20.7499Z" fill="#2BB6B1"/>
<path id="Vector_49" d="M30.89 20.7499C31.3318 20.7499 31.69 20.3917 31.69 19.9499C31.69 19.5081 31.3318 19.1499 30.89 19.1499C30.4481 19.1499 30.09 19.5081 30.09 19.9499C30.09 20.3917 30.4481 20.7499 30.89 20.7499Z" fill="#2BB6B1"/>
<path id="Vector_50" d="M0 0.129883V1.47988H6.51V2.25988H0V3.60988H6.51V4.38988H0V5.73988H6.51V20.6799H7.86V5.72988H8.64V20.6699H9.99V5.72988H10.77V20.6699H12.12V5.72988H18.63V4.37988H12.12V3.59988H18.63V2.24988H12.12V1.46988H18.63V0.129883H0ZM7.86 1.47988H8.64V2.25988H7.86V1.47988ZM7.86 4.38988V3.60988H8.64V4.38988H7.86ZM10.77 4.38988H9.99V3.60988H10.77V4.38988ZM10.77 2.25988H9.99V1.47988H10.77V2.25988Z" fill="#232323"/>
<path id="Vector_51" d="M73.57 1.30001C73.57 1.60001 73.33 1.84001 73.03 1.84001C72.73 1.84001 72.49 1.60001 72.49 1.30001C72.49 1.00001 72.73 0.76001 73.03 0.76001C73.33 0.76001 73.57 1.00001 73.57 1.30001Z" fill="#232323"/>
<path id="Vector_52" d="M64.44 18.4799C64.44 18.7799 64.2 19.0199 63.9 19.0199C63.6 19.0199 63.36 18.7799 63.36 18.4799C63.36 18.1799 63.6 17.9399 63.9 17.9399C64.2 17.9399 64.44 18.1799 64.44 18.4799Z" fill="#2BB6B1"/>
<path id="Vector_53" d="M63.88 15.5399L62.05 19.8499H61.08L63.46 14.3999H64.34L66.72 19.8499H65.72L63.89 15.5399H63.88Z" fill="#2BB6B1"/>
<path id="Vector_54" d="M69.29 4.97994C69.29 5.27994 69.05 5.51994 68.75 5.51994C68.45 5.51994 68.21 5.27994 68.21 4.97994C68.21 4.67994 68.45 4.43994 68.75 4.43994C69.05 4.43994 69.29 4.67994 69.29 4.97994Z" fill="#232323"/>
<path id="Vector_55" d="M68.7399 2.0399L66.9099 6.3499H65.9399L68.3199 0.899902H69.1999L71.5799 6.3499H70.5799L68.7499 2.0399H68.7399Z" fill="#232323"/>
<path id="Vector_56" d="M85.7 4.97994C85.7 5.27994 85.46 5.51994 85.16 5.51994C84.86 5.51994 84.62 5.27994 84.62 4.97994C84.62 4.67994 84.86 4.43994 85.16 4.43994C85.46 4.43994 85.7 4.67994 85.7 4.97994Z" fill="#232323"/>
<path id="Vector_57" d="M85.14 2.0399L83.31 6.3499H82.34L84.72 0.899902H85.6L87.98 6.3499H86.98L85.15 2.0399H85.14Z" fill="#232323"/>
<path id="Vector_58" d="M87.3999 18.4799C87.3999 18.7799 87.1599 19.0199 86.8599 19.0199C86.5599 19.0199 86.3199 18.7799 86.3199 18.4799C86.3199 18.1799 86.5599 17.9399 86.8599 17.9399C87.1599 17.9399 87.3999 18.1799 87.3999 18.4799Z" fill="#232323"/>
<path id="Vector_59" d="M86.85 15.5399L85.02 19.8499H84.05L86.43 14.3999H87.31L89.69 19.8499H88.69L86.86 15.5399H86.85Z" fill="#232323"/>
<path id="Vector_60" d="M64.3699 6.34994H63.4099V1.81994H61.6899V0.939941H66.0799V1.81994H64.3599V6.34994H64.3699Z" fill="#2BB6B1"/>
<path id="Vector_61" d="M73.5101 2.88991V6.34991H72.5601V2.88991C72.5601 2.62991 72.7701 2.40991 73.0401 2.40991C73.3001 2.40991 73.5201 2.61991 73.5201 2.88991H73.5101Z" fill="#232323"/>
<path id="Vector_62" d="M78.18 0.929932H78.98L80.31 4.95993L81.6 0.949932H82.6L80.71 6.39993H79.89L78.56 2.50993L77.23 6.39993H76.41L74.52 0.949932H75.55L76.84 4.95993L78.17 0.929932H78.18Z" fill="#232323"/>
<path id="Vector_63" d="M92.6099 0.939941H93.5399V6.34994H92.7399L89.7599 2.49994V6.34994H88.8199V0.939941H89.6999L92.5999 4.67994V0.939941H92.6099Z" fill="#232323"/>
<path id="Vector_64" d="M64.3699 13.0899H63.4099V8.55993H61.6899V7.67993H66.0799V8.55993H64.3599V13.0899H64.3699Z" fill="#2BB6B1"/>
<path id="Vector_65" d="M69.09 13.1801C67.51 13.1801 66.34 11.9501 66.34 10.3901C66.34 8.83008 67.49 7.58008 69.13 7.58008C70.13 7.58008 70.73 7.93008 71.25 8.42008L70.64 9.12008C70.21 8.72008 69.74 8.45008 69.13 8.45008C68.09 8.45008 67.34 9.30008 67.34 10.3701C67.34 11.4401 68.09 12.3001 69.13 12.3001C69.79 12.3001 70.22 12.0301 70.68 11.6001L71.29 12.2201C70.73 12.8101 70.11 13.1801 69.1 13.1801H69.09Z" fill="#232323"/>
<path id="Vector_66" d="M74.9 13.1801C73.32 13.1801 72.15 11.9501 72.15 10.3901C72.15 8.83008 73.3 7.58008 74.94 7.58008C75.94 7.58008 76.54 7.93008 77.06 8.42008L76.45 9.12008C76.02 8.72008 75.55 8.45008 74.94 8.45008C73.9 8.45008 73.15 9.30008 73.15 10.3701C73.15 11.4401 73.9 12.3001 74.94 12.3001C75.6 12.3001 76.03 12.0301 76.49 11.6001L77.1 12.2201C76.54 12.8101 75.92 13.1801 74.91 13.1801H74.9Z" fill="#232323"/>
<path id="Vector_67" d="M78.93 10.8099V13.0899H77.98V7.67993H78.93V9.92993H81.51V7.67993H82.46V13.0899H81.51V10.8099H78.93Z" fill="#232323"/>
<path id="Vector_68" d="M71.11 19.86L69.78 17.97H68.59V19.86H67.64V14.45H70.05C71.29 14.45 72.06 15.11 72.06 16.17C72.06 17.07 71.53 17.61 70.77 17.82L72.23 19.87H71.11V19.86ZM69.97 15.32H68.59V17.14H69.98C70.66 17.14 71.09 16.78 71.09 16.23C71.09 15.63 70.67 15.33 69.97 15.33V15.32Z" fill="#232323"/>
<path id="Vector_69" d="M77.24 15.3H74.18V16.71H76.89V17.56H74.18V19.01H77.28V19.86H73.23V14.45H77.24V15.3Z" fill="#232323"/>
<path id="Vector_70" d="M82.18 14.45H83.11V19.86H82.31L79.33 16.01V19.86H78.4V14.45H79.28L82.18 18.19V14.45Z" fill="#232323"/>
<path id="Vector_71" d="M71.42 9.81006H68.8V10.6901H71.42V9.81006Z" fill="#232323"/>
</g>
<defs>
<clipPath id="clip0_74_398">
<rect width="93.54" height="20.75" fill="white"/>
</clipPath>
</defs>
</svg>
