<svg width="248" height="342" viewBox="0 0 248 342" fill="none" xmlns="http://www.w3.org/2000/svg">
<g filter="url(#filter0_b_45_1197)">
<rect y="2" width="248" height="340" rx="20" fill="#252D2B" fill-opacity="0.7"/>
<ellipse opacity="0.5" cx="104.565" cy="167.483" rx="75" ry="84" transform="rotate(-46.6181 104.565 167.483)" fill="url(#paint0_radial_45_1197)"/>
<ellipse opacity="0.5" cx="133.565" cy="176.483" rx="75" ry="84" transform="rotate(-46.6181 133.565 176.483)" fill="url(#paint1_radial_45_1197)"/>
<path d="M93.1703 161.278V148.678H94.9703V159.712H101.792V161.278H93.1703ZM103.606 161.278V151.738H105.334V161.278H103.606ZM104.47 149.902C104.134 149.902 103.852 149.794 103.624 149.578C103.408 149.362 103.3 149.098 103.3 148.786C103.3 148.462 103.408 148.192 103.624 147.976C103.852 147.76 104.134 147.652 104.47 147.652C104.806 147.652 105.082 147.76 105.298 147.976C105.526 148.18 105.64 148.438 105.64 148.75C105.64 149.074 105.532 149.35 105.316 149.578C105.1 149.794 104.818 149.902 104.47 149.902ZM113.727 151.648C114.507 151.648 115.191 151.798 115.779 152.098C116.379 152.398 116.847 152.854 117.183 153.466C117.519 154.078 117.687 154.852 117.687 155.788V161.278H115.959V155.986C115.959 155.062 115.731 154.366 115.275 153.898C114.831 153.43 114.201 153.196 113.385 153.196C112.773 153.196 112.239 153.316 111.783 153.556C111.327 153.796 110.973 154.15 110.721 154.618C110.481 155.086 110.361 155.668 110.361 156.364V161.278H108.633V151.738H110.289V154.312L110.019 153.628C110.331 153.004 110.811 152.518 111.459 152.17C112.107 151.822 112.863 151.648 113.727 151.648ZM125.133 161.386C124.113 161.386 123.213 161.176 122.433 160.756C121.665 160.336 121.065 159.76 120.633 159.028C120.213 158.296 120.003 157.456 120.003 156.508C120.003 155.56 120.207 154.72 120.615 153.988C121.035 153.256 121.605 152.686 122.325 152.278C123.057 151.858 123.879 151.648 124.791 151.648C125.715 151.648 126.531 151.852 127.239 152.26C127.947 152.668 128.499 153.244 128.895 153.988C129.303 154.72 129.507 155.578 129.507 156.562C129.507 156.634 129.501 156.718 129.489 156.814C129.489 156.91 129.483 157 129.471 157.084H121.353V155.842H128.571L127.869 156.274C127.881 155.662 127.755 155.116 127.491 154.636C127.227 154.156 126.861 153.784 126.393 153.52C125.937 153.244 125.403 153.106 124.791 153.106C124.191 153.106 123.657 153.244 123.189 153.52C122.721 153.784 122.355 154.162 122.091 154.654C121.827 155.134 121.695 155.686 121.695 156.31V156.598C121.695 157.234 121.839 157.804 122.127 158.308C122.427 158.8 122.841 159.184 123.369 159.46C123.897 159.736 124.503 159.874 125.187 159.874C125.751 159.874 126.261 159.778 126.717 159.586C127.185 159.394 127.593 159.106 127.941 158.722L128.895 159.838C128.463 160.342 127.923 160.726 127.275 160.99C126.639 161.254 125.925 161.386 125.133 161.386ZM135.921 161.386C135.105 161.386 134.385 161.236 133.761 160.936C133.149 160.636 132.669 160.18 132.321 159.568C131.985 158.944 131.817 158.164 131.817 157.228V151.738H133.545V157.03C133.545 157.966 133.767 158.668 134.211 159.136C134.667 159.604 135.303 159.838 136.119 159.838C136.719 159.838 137.241 159.718 137.685 159.478C138.129 159.226 138.471 158.866 138.711 158.398C138.951 157.918 139.071 157.342 139.071 156.67V151.738H140.799V161.278H139.161V158.704L139.431 159.388C139.119 160.024 138.651 160.516 138.027 160.864C137.403 161.212 136.701 161.386 135.921 161.386ZM149.146 161.386C148.354 161.386 147.628 161.206 146.968 160.846C146.32 160.474 145.798 159.928 145.402 159.208C145.018 158.488 144.826 157.588 144.826 156.508C144.826 155.428 145.012 154.528 145.384 153.808C145.768 153.088 146.284 152.548 146.932 152.188C147.592 151.828 148.33 151.648 149.146 151.648C150.082 151.648 150.91 151.852 151.63 152.26C152.35 152.668 152.92 153.238 153.34 153.97C153.76 154.69 153.97 155.536 153.97 156.508C153.97 157.48 153.76 158.332 153.34 159.064C152.92 159.796 152.35 160.366 151.63 160.774C150.91 161.182 150.082 161.386 149.146 161.386ZM144.088 164.77V151.738H145.744V154.312L145.636 156.526L145.816 158.74V164.77H144.088ZM149.002 159.874C149.614 159.874 150.16 159.736 150.64 159.46C151.132 159.184 151.516 158.794 151.792 158.29C152.08 157.774 152.224 157.18 152.224 156.508C152.224 155.824 152.08 155.236 151.792 154.744C151.516 154.24 151.132 153.85 150.64 153.574C150.16 153.298 149.614 153.16 149.002 153.16C148.402 153.16 147.856 153.298 147.364 153.574C146.884 153.85 146.5 154.24 146.212 154.744C145.936 155.236 145.798 155.824 145.798 156.508C145.798 157.18 145.936 157.774 146.212 158.29C146.5 158.794 146.884 159.184 147.364 159.46C147.856 159.736 148.402 159.874 149.002 159.874ZM68.5875 186.422C67.6275 186.422 66.7395 186.266 65.9235 185.954C65.1195 185.63 64.4175 185.18 63.8175 184.604C63.2295 184.016 62.7675 183.332 62.4315 182.552C62.0955 181.772 61.9275 180.914 61.9275 179.978C61.9275 179.042 62.0955 178.184 62.4315 177.404C62.7675 176.624 63.2355 175.946 63.8355 175.37C64.4355 174.782 65.1375 174.332 65.9415 174.02C66.7575 173.696 67.6455 173.534 68.6055 173.534C69.5775 173.534 70.4715 173.702 71.2875 174.038C72.1155 174.362 72.8175 174.848 73.3935 175.496L72.2235 176.63C71.7435 176.126 71.2035 175.754 70.6035 175.514C70.0035 175.262 69.3615 175.136 68.6775 175.136C67.9695 175.136 67.3095 175.256 66.6975 175.496C66.0975 175.736 65.5755 176.072 65.1315 176.504C64.6875 176.936 64.3395 177.452 64.0875 178.052C63.8475 178.64 63.7275 179.282 63.7275 179.978C63.7275 180.674 63.8475 181.322 64.0875 181.922C64.3395 182.51 64.6875 183.02 65.1315 183.452C65.5755 183.884 66.0975 184.22 66.6975 184.46C67.3095 184.7 67.9695 184.82 68.6775 184.82C69.3615 184.82 70.0035 184.7 70.6035 184.46C71.2035 184.208 71.7435 183.824 72.2235 183.308L73.3935 184.442C72.8175 185.09 72.1155 185.582 71.2875 185.918C70.4715 186.254 69.5715 186.422 68.5875 186.422ZM79.391 186.386C78.431 186.386 77.579 186.176 76.835 185.756C76.091 185.336 75.503 184.76 75.071 184.028C74.639 183.284 74.423 182.444 74.423 181.508C74.423 180.56 74.639 179.72 75.071 178.988C75.503 178.256 76.091 177.686 76.835 177.278C77.579 176.858 78.431 176.648 79.391 176.648C80.339 176.648 81.185 176.858 81.929 177.278C82.685 177.686 83.273 178.256 83.693 178.988C84.125 179.708 84.341 180.548 84.341 181.508C84.341 182.456 84.125 183.296 83.693 184.028C83.273 184.76 82.685 185.336 81.929 185.756C81.185 186.176 80.339 186.386 79.391 186.386ZM79.391 184.874C80.003 184.874 80.549 184.736 81.029 184.46C81.521 184.184 81.905 183.794 82.181 183.29C82.457 182.774 82.595 182.18 82.595 181.508C82.595 180.824 82.457 180.236 82.181 179.744C81.905 179.24 81.521 178.85 81.029 178.574C80.549 178.298 80.003 178.16 79.391 178.16C78.779 178.16 78.233 178.298 77.753 178.574C77.273 178.85 76.889 179.24 76.601 179.744C76.313 180.236 76.169 180.824 76.169 181.508C76.169 182.18 76.313 182.774 76.601 183.29C76.889 183.794 77.273 184.184 77.753 184.46C78.233 184.736 78.779 184.874 79.391 184.874ZM98.6648 176.648C99.4328 176.648 100.111 176.798 100.699 177.098C101.287 177.398 101.743 177.854 102.067 178.466C102.403 179.078 102.571 179.852 102.571 180.788V186.278H100.843V180.986C100.843 180.062 100.627 179.366 100.195 178.898C99.7628 178.43 99.1568 178.196 98.3768 178.196C97.8008 178.196 97.2968 178.316 96.8648 178.556C96.4328 178.796 96.0968 179.15 95.8568 179.618C95.6288 180.086 95.5148 180.668 95.5148 181.364V186.278H93.7868V180.986C93.7868 180.062 93.5708 179.366 93.1388 178.898C92.7188 178.43 92.1128 178.196 91.3208 178.196C90.7568 178.196 90.2588 178.316 89.8268 178.556C89.3948 178.796 89.0588 179.15 88.8188 179.618C88.5788 180.086 88.4588 180.668 88.4588 181.364V186.278H86.7308V176.738H88.3868V179.276L88.1168 178.628C88.4168 178.004 88.8788 177.518 89.5028 177.17C90.1268 176.822 90.8528 176.648 91.6808 176.648C92.5928 176.648 93.3788 176.876 94.0388 177.332C94.6988 177.776 95.1308 178.454 95.3348 179.366L94.6328 179.078C94.9208 178.346 95.4248 177.758 96.1448 177.314C96.8648 176.87 97.7048 176.648 98.6648 176.648ZM105.75 186.278V176.738H107.478V186.278H105.75ZM106.614 174.902C106.278 174.902 105.996 174.794 105.768 174.578C105.552 174.362 105.444 174.098 105.444 173.786C105.444 173.462 105.552 173.192 105.768 172.976C105.996 172.76 106.278 172.652 106.614 172.652C106.95 172.652 107.226 172.76 107.442 172.976C107.67 173.18 107.784 173.438 107.784 173.75C107.784 174.074 107.676 174.35 107.46 174.578C107.244 174.794 106.962 174.902 106.614 174.902ZM115.872 176.648C116.652 176.648 117.336 176.798 117.924 177.098C118.524 177.398 118.992 177.854 119.328 178.466C119.664 179.078 119.832 179.852 119.832 180.788V186.278H118.104V180.986C118.104 180.062 117.876 179.366 117.42 178.898C116.976 178.43 116.346 178.196 115.53 178.196C114.918 178.196 114.384 178.316 113.928 178.556C113.472 178.796 113.118 179.15 112.866 179.618C112.626 180.086 112.506 180.668 112.506 181.364V186.278H110.778V176.738H112.434V179.312L112.164 178.628C112.476 178.004 112.956 177.518 113.604 177.17C114.252 176.822 115.008 176.648 115.872 176.648ZM127.206 189.878C126.33 189.878 125.478 189.752 124.65 189.5C123.834 189.26 123.168 188.912 122.652 188.456L123.48 187.124C123.924 187.508 124.47 187.808 125.118 188.024C125.766 188.252 126.444 188.366 127.152 188.366C128.28 188.366 129.108 188.102 129.636 187.574C130.164 187.046 130.428 186.242 130.428 185.162V183.146L130.608 181.256L130.518 179.348V176.738H132.156V184.982C132.156 186.662 131.736 187.898 130.896 188.69C130.056 189.482 128.826 189.878 127.206 189.878ZM126.99 185.882C126.066 185.882 125.238 185.69 124.506 185.306C123.786 184.91 123.21 184.364 122.778 183.668C122.358 182.972 122.148 182.168 122.148 181.256C122.148 180.332 122.358 179.528 122.778 178.844C123.21 178.148 123.786 177.608 124.506 177.224C125.238 176.84 126.066 176.648 126.99 176.648C127.806 176.648 128.55 176.816 129.222 177.152C129.894 177.476 130.428 177.98 130.824 178.664C131.232 179.348 131.436 180.212 131.436 181.256C131.436 182.288 131.232 183.146 130.824 183.83C130.428 184.514 129.894 185.03 129.222 185.378C128.55 185.714 127.806 185.882 126.99 185.882ZM127.188 184.37C127.824 184.37 128.388 184.238 128.88 183.974C129.372 183.71 129.756 183.344 130.032 182.876C130.32 182.408 130.464 181.868 130.464 181.256C130.464 180.644 130.32 180.104 130.032 179.636C129.756 179.168 129.372 178.808 128.88 178.556C128.388 178.292 127.824 178.16 127.188 178.16C126.552 178.16 125.982 178.292 125.478 178.556C124.986 178.808 124.596 179.168 124.308 179.636C124.032 180.104 123.894 180.644 123.894 181.256C123.894 181.868 124.032 182.408 124.308 182.876C124.596 183.344 124.986 183.71 125.478 183.974C125.982 184.238 126.552 184.37 127.188 184.37ZM144.215 186.422C143.255 186.422 142.337 186.278 141.461 185.99C140.585 185.69 139.895 185.306 139.391 184.838L140.057 183.434C140.537 183.854 141.149 184.202 141.893 184.478C142.637 184.754 143.411 184.892 144.215 184.892C144.947 184.892 145.541 184.808 145.997 184.64C146.453 184.472 146.789 184.244 147.005 183.956C147.221 183.656 147.329 183.32 147.329 182.948C147.329 182.516 147.185 182.168 146.897 181.904C146.621 181.64 146.255 181.43 145.799 181.274C145.355 181.106 144.863 180.962 144.323 180.842C143.783 180.722 143.237 180.584 142.685 180.428C142.145 180.26 141.647 180.05 141.191 179.798C140.747 179.546 140.387 179.21 140.111 178.79C139.835 178.358 139.697 177.806 139.697 177.134C139.697 176.486 139.865 175.892 140.201 175.352C140.549 174.8 141.077 174.362 141.785 174.038C142.505 173.702 143.417 173.534 144.521 173.534C145.253 173.534 145.979 173.63 146.699 173.822C147.419 174.014 148.043 174.29 148.571 174.65L147.977 176.09C147.437 175.73 146.867 175.472 146.267 175.316C145.667 175.148 145.085 175.064 144.521 175.064C143.813 175.064 143.231 175.154 142.775 175.334C142.319 175.514 141.983 175.754 141.767 176.054C141.563 176.354 141.461 176.69 141.461 177.062C141.461 177.506 141.599 177.86 141.875 178.124C142.163 178.388 142.529 178.598 142.973 178.754C143.429 178.91 143.927 179.054 144.467 179.186C145.007 179.306 145.547 179.444 146.087 179.6C146.639 179.756 147.137 179.96 147.581 180.212C148.037 180.464 148.403 180.8 148.679 181.22C148.955 181.64 149.093 182.18 149.093 182.84C149.093 183.476 148.919 184.07 148.571 184.622C148.223 185.162 147.683 185.6 146.951 185.936C146.231 186.26 145.319 186.422 144.215 186.422ZM155.557 186.386C154.597 186.386 153.745 186.176 153.001 185.756C152.257 185.336 151.669 184.76 151.237 184.028C150.805 183.284 150.589 182.444 150.589 181.508C150.589 180.56 150.805 179.72 151.237 178.988C151.669 178.256 152.257 177.686 153.001 177.278C153.745 176.858 154.597 176.648 155.557 176.648C156.505 176.648 157.351 176.858 158.095 177.278C158.851 177.686 159.439 178.256 159.859 178.988C160.291 179.708 160.507 180.548 160.507 181.508C160.507 182.456 160.291 183.296 159.859 184.028C159.439 184.76 158.851 185.336 158.095 185.756C157.351 186.176 156.505 186.386 155.557 186.386ZM155.557 184.874C156.169 184.874 156.715 184.736 157.195 184.46C157.687 184.184 158.071 183.794 158.347 183.29C158.623 182.774 158.761 182.18 158.761 181.508C158.761 180.824 158.623 180.236 158.347 179.744C158.071 179.24 157.687 178.85 157.195 178.574C156.715 178.298 156.169 178.16 155.557 178.16C154.945 178.16 154.399 178.298 153.919 178.574C153.439 178.85 153.055 179.24 152.767 179.744C152.479 180.236 152.335 180.824 152.335 181.508C152.335 182.18 152.479 182.774 152.767 183.29C153.055 183.794 153.439 184.184 153.919 184.46C154.399 184.736 154.945 184.874 155.557 184.874ZM166.983 186.386C166.023 186.386 165.171 186.176 164.427 185.756C163.683 185.336 163.095 184.76 162.663 184.028C162.231 183.284 162.015 182.444 162.015 181.508C162.015 180.56 162.231 179.72 162.663 178.988C163.095 178.256 163.683 177.686 164.427 177.278C165.171 176.858 166.023 176.648 166.983 176.648C167.931 176.648 168.777 176.858 169.521 177.278C170.277 177.686 170.865 178.256 171.285 178.988C171.717 179.708 171.933 180.548 171.933 181.508C171.933 182.456 171.717 183.296 171.285 184.028C170.865 184.76 170.277 185.336 169.521 185.756C168.777 186.176 167.931 186.386 166.983 186.386ZM166.983 184.874C167.595 184.874 168.141 184.736 168.621 184.46C169.113 184.184 169.497 183.794 169.773 183.29C170.049 182.774 170.187 182.18 170.187 181.508C170.187 180.824 170.049 180.236 169.773 179.744C169.497 179.24 169.113 178.85 168.621 178.574C168.141 178.298 167.595 178.16 166.983 178.16C166.371 178.16 165.825 178.298 165.345 178.574C164.865 178.85 164.481 179.24 164.193 179.744C163.905 180.236 163.761 180.824 163.761 181.508C163.761 182.18 163.905 182.774 164.193 183.29C164.481 183.794 164.865 184.184 165.345 184.46C165.825 184.736 166.371 184.874 166.983 184.874ZM179.417 176.648C180.197 176.648 180.881 176.798 181.469 177.098C182.069 177.398 182.537 177.854 182.873 178.466C183.209 179.078 183.377 179.852 183.377 180.788V186.278H181.649V180.986C181.649 180.062 181.421 179.366 180.965 178.898C180.521 178.43 179.891 178.196 179.075 178.196C178.463 178.196 177.929 178.316 177.473 178.556C177.017 178.796 176.663 179.15 176.411 179.618C176.171 180.086 176.051 180.668 176.051 181.364V186.278H174.323V176.738H175.979V179.312L175.709 178.628C176.021 178.004 176.501 177.518 177.149 177.17C177.797 176.822 178.553 176.648 179.417 176.648Z" fill="white"/>
<path d="M20.9545 2.67268C20.4894 1.37019 21.4549 0 22.838 0H225.162C226.545 0 227.511 1.37018 227.045 2.67267L220.37 21.3634C218.949 25.3433 215.179 28 210.953 28H37.0472C32.8211 28 29.0512 25.3433 27.6298 21.3634L20.9545 2.67268Z" fill="url(#paint2_linear_45_1197)"/>
<circle cx="65.5" cy="14" r="1.5" fill="#6FFFE5"/>
<circle cx="74.5" cy="14" r="1.5" fill="#6FFFE5"/>
<path d="M96.471 19V9.2H100.293C101.152 9.2 101.884 9.33533 102.491 9.606C103.098 9.87667 103.564 10.2687 103.891 10.782C104.218 11.2953 104.381 11.9067 104.381 12.616C104.381 13.3253 104.218 13.9367 103.891 14.45C103.564 14.954 103.098 15.346 102.491 15.626C101.884 15.8967 101.152 16.032 100.293 16.032H97.241L97.871 15.374V19H96.471ZM97.871 15.514L97.241 14.814H100.251C101.147 14.814 101.824 14.6227 102.281 14.24C102.748 13.8573 102.981 13.316 102.981 12.616C102.981 11.916 102.748 11.3747 102.281 10.992C101.824 10.6093 101.147 10.418 100.251 10.418H97.241L97.871 9.718V15.514ZM110.779 19V17.432L110.709 17.138V14.464C110.709 13.8947 110.541 13.456 110.205 13.148C109.879 12.8307 109.384 12.672 108.721 12.672C108.283 12.672 107.853 12.7467 107.433 12.896C107.013 13.036 106.659 13.2273 106.369 13.47L105.809 12.462C106.192 12.154 106.649 11.9207 107.181 11.762C107.723 11.594 108.287 11.51 108.875 11.51C109.893 11.51 110.677 11.7573 111.227 12.252C111.778 12.7467 112.053 13.5027 112.053 14.52V19H110.779ZM108.343 19.084C107.793 19.084 107.307 18.9907 106.887 18.804C106.477 18.6173 106.159 18.3607 105.935 18.034C105.711 17.698 105.599 17.32 105.599 16.9C105.599 16.4987 105.693 16.1347 105.879 15.808C106.075 15.4813 106.388 15.22 106.817 15.024C107.256 14.828 107.844 14.73 108.581 14.73H110.933V15.696H108.637C107.965 15.696 107.513 15.808 107.279 16.032C107.046 16.256 106.929 16.5267 106.929 16.844C106.929 17.208 107.074 17.502 107.363 17.726C107.653 17.9407 108.054 18.048 108.567 18.048C109.071 18.048 109.51 17.936 109.883 17.712C110.266 17.488 110.541 17.1613 110.709 16.732L110.975 17.656C110.798 18.0947 110.485 18.4447 110.037 18.706C109.589 18.958 109.025 19.084 108.343 19.084ZM118.503 11.51C119.109 11.51 119.641 11.6267 120.099 11.86C120.565 12.0933 120.929 12.448 121.191 12.924C121.452 13.4 121.583 14.002 121.583 14.73V19H120.239V14.884C120.239 14.1653 120.061 13.624 119.707 13.26C119.361 12.896 118.871 12.714 118.237 12.714C117.761 12.714 117.345 12.8073 116.991 12.994C116.636 13.1807 116.361 13.456 116.165 13.82C115.978 14.184 115.885 14.6367 115.885 15.178V19H114.541V11.58H115.829V13.582L115.619 13.05C115.861 12.5647 116.235 12.1867 116.739 11.916C117.243 11.6453 117.831 11.51 118.503 11.51ZM127.374 19.084C126.581 19.084 125.881 18.9207 125.274 18.594C124.677 18.2673 124.21 17.8193 123.874 17.25C123.547 16.6807 123.384 16.0273 123.384 15.29C123.384 14.5527 123.543 13.8993 123.86 13.33C124.187 12.7607 124.63 12.3173 125.19 12C125.759 11.6733 126.399 11.51 127.108 11.51C127.827 11.51 128.461 11.6687 129.012 11.986C129.563 12.3033 129.992 12.7513 130.3 13.33C130.617 13.8993 130.776 14.5667 130.776 15.332C130.776 15.388 130.771 15.4533 130.762 15.528C130.762 15.6027 130.757 15.6727 130.748 15.738H124.434V14.772H130.048L129.502 15.108C129.511 14.632 129.413 14.2073 129.208 13.834C129.003 13.4607 128.718 13.1713 128.354 12.966C127.999 12.7513 127.584 12.644 127.108 12.644C126.641 12.644 126.226 12.7513 125.862 12.966C125.498 13.1713 125.213 13.4653 125.008 13.848C124.803 14.2213 124.7 14.6507 124.7 15.136V15.36C124.7 15.8547 124.812 16.298 125.036 16.69C125.269 17.0727 125.591 17.3713 126.002 17.586C126.413 17.8007 126.884 17.908 127.416 17.908C127.855 17.908 128.251 17.8333 128.606 17.684C128.97 17.5347 129.287 17.3107 129.558 17.012L130.3 17.88C129.964 18.272 129.544 18.5707 129.04 18.776C128.545 18.9813 127.99 19.084 127.374 19.084ZM132.642 19V8.612H133.986V19H132.642ZM136.552 19V11.58H137.896V19H136.552ZM137.224 10.152C136.963 10.152 136.744 10.068 136.566 9.9C136.398 9.732 136.314 9.52667 136.314 9.284C136.314 9.032 136.398 8.822 136.566 8.654C136.744 8.486 136.963 8.402 137.224 8.402C137.486 8.402 137.7 8.486 137.868 8.654C138.046 8.81267 138.134 9.01333 138.134 9.256C138.134 9.508 138.05 9.72267 137.882 9.9C137.714 10.068 137.495 10.152 137.224 10.152ZM142.59 19.084C141.974 19.084 141.386 19 140.826 18.832C140.276 18.664 139.842 18.4587 139.524 18.216L140.084 17.152C140.402 17.3667 140.794 17.5487 141.26 17.698C141.727 17.8473 142.203 17.922 142.688 17.922C143.314 17.922 143.762 17.8333 144.032 17.656C144.312 17.4787 144.452 17.2313 144.452 16.914C144.452 16.6807 144.368 16.4987 144.2 16.368C144.032 16.2373 143.808 16.1393 143.528 16.074C143.258 16.0087 142.954 15.9527 142.618 15.906C142.282 15.85 141.946 15.7847 141.61 15.71C141.274 15.626 140.966 15.514 140.686 15.374C140.406 15.2247 140.182 15.024 140.014 14.772C139.846 14.5107 139.762 14.1653 139.762 13.736C139.762 13.288 139.888 12.896 140.14 12.56C140.392 12.224 140.747 11.9673 141.204 11.79C141.671 11.6033 142.222 11.51 142.856 11.51C143.342 11.51 143.832 11.5707 144.326 11.692C144.83 11.804 145.241 11.9673 145.558 12.182L144.984 13.246C144.648 13.022 144.298 12.868 143.934 12.784C143.57 12.7 143.206 12.658 142.842 12.658C142.254 12.658 141.816 12.756 141.526 12.952C141.237 13.1387 141.092 13.3813 141.092 13.68C141.092 13.932 141.176 14.128 141.344 14.268C141.522 14.3987 141.746 14.5013 142.016 14.576C142.296 14.6507 142.604 14.716 142.94 14.772C143.276 14.8187 143.612 14.884 143.948 14.968C144.284 15.0427 144.588 15.15 144.858 15.29C145.138 15.43 145.362 15.626 145.53 15.878C145.708 16.13 145.796 16.466 145.796 16.886C145.796 17.334 145.666 17.7213 145.404 18.048C145.143 18.3747 144.774 18.6313 144.298 18.818C143.822 18.9953 143.253 19.084 142.59 19.084ZM150.024 19.084C149.277 19.084 148.699 18.8833 148.288 18.482C147.877 18.0807 147.672 17.5067 147.672 16.76V9.956H149.016V16.704C149.016 17.1053 149.114 17.4133 149.31 17.628C149.515 17.8427 149.805 17.95 150.178 17.95C150.598 17.95 150.948 17.8333 151.228 17.6L151.648 18.566C151.443 18.7433 151.195 18.874 150.906 18.958C150.626 19.042 150.332 19.084 150.024 19.084ZM146.412 12.686V11.58H151.144V12.686H146.412Z" fill="#6FFFE5"/>
<circle cx="172.5" cy="14" r="1.5" fill="#6FFFE5"/>
<circle cx="181.5" cy="14" r="1.5" fill="#6FFFE5"/>
</g>
<defs>
<filter id="filter0_b_45_1197" x="-30" y="-30" width="308" height="402" filterUnits="userSpaceOnUse" color-interpolation-filters="sRGB">
<feFlood flood-opacity="0" result="BackgroundImageFix"/>
<feGaussianBlur in="BackgroundImageFix" stdDeviation="15"/>
<feComposite in2="SourceAlpha" operator="in" result="effect1_backgroundBlur_45_1197"/>
<feBlend mode="normal" in="SourceGraphic" in2="effect1_backgroundBlur_45_1197" result="shape"/>
</filter>
<radialGradient id="paint0_radial_45_1197" cx="0" cy="0" r="1" gradientUnits="userSpaceOnUse" gradientTransform="translate(104.565 167.483) rotate(90) scale(84 75)">
<stop stop-color="#6FFFE5"/>
<stop offset="1" stop-color="#6FFFE5" stop-opacity="0"/>
</radialGradient>
<radialGradient id="paint1_radial_45_1197" cx="0" cy="0" r="1" gradientUnits="userSpaceOnUse" gradientTransform="translate(133.565 176.483) rotate(90) scale(84 75)">
<stop stop-color="#FFF64A"/>
<stop offset="1" stop-color="#FFF64A" stop-opacity="0"/>
</radialGradient>
<linearGradient id="paint2_linear_45_1197" x1="20" y1="0" x2="228.937" y2="14.489" gradientUnits="userSpaceOnUse">
<stop stop-color="#00A38B" stop-opacity="0.5"/>
<stop offset="1" stop-color="#22F2FF" stop-opacity="0.5"/>
</linearGradient>
</defs>
</svg>
