<svg width="36" height="36" viewBox="0 0 36 36" fill="none" xmlns="http://www.w3.org/2000/svg">
<g clip-path="url(#clip0_45_1156)">
<path fill-rule="evenodd" clip-rule="evenodd" d="M18 36C27.9411 36 36 27.9411 36 18C36 8.05887 27.9411 0 18 0C8.05887 0 0 8.05887 0 18C0 27.9411 8.05887 36 18 36ZM12.4657 18C12.4657 14.9346 14.9377 12.462 18.0024 12.462C21.0671 12.462 23.5391 14.9346 23.5391 18C23.5391 21.0654 21.0671 23.538 18.0024 23.538C14.9377 23.538 12.4657 21.0654 12.4657 18ZM14.4028 18C14.4028 19.9858 16.0219 21.6004 18.0024 21.6004C19.9829 21.6004 21.602 19.9858 21.602 18C21.602 16.0142 19.9877 14.3996 18.0024 14.3996C16.0171 14.3996 14.4028 16.0142 14.4028 18ZM23.7656 13.5272C24.4788 13.5272 25.057 12.9537 25.057 12.2355C25.057 11.5222 24.4788 10.9438 23.7656 10.9438C23.0525 10.9438 22.4742 11.5222 22.4742 12.2355C22.4742 12.9488 23.0476 13.5272 23.7656 13.5272ZM26.9797 9.02069C28.2471 10.2835 28.6422 11.8162 28.7241 13.5465C28.8253 15.3298 28.8253 20.6702 28.7241 22.4535C28.6374 24.1838 28.2422 25.7165 26.9797 26.9793C25.7172 28.2469 24.1849 28.6422 22.4549 28.7241C20.672 28.8253 15.328 28.8253 13.5451 28.7241C11.8151 28.6373 10.2876 28.2421 9.02028 26.9793C7.75295 25.7165 7.35781 24.1838 7.2759 22.4535C7.1747 20.6702 7.1747 15.325 7.2759 13.5417C7.36263 11.8114 7.75295 10.2787 9.02028 9.01587C10.2876 7.75307 11.82 7.35785 13.5451 7.27591C15.328 7.1747 20.672 7.1747 22.4549 7.27591C24.1849 7.36267 25.7172 7.75789 26.9797 9.02069ZM24.368 26.4202C25.3173 26.0395 26.0449 25.3117 26.4207 24.367C26.9043 23.1516 26.8774 20.493 26.86 18.7696C26.8571 18.4837 26.8544 18.2236 26.8544 18C26.8544 17.7764 26.8571 17.5163 26.86 17.2305C26.8774 15.508 26.9043 12.8525 26.4207 11.633C26.0401 10.6835 25.3124 9.95573 24.368 9.57978C23.149 9.09873 20.4781 9.12435 18.7556 9.14088C18.4762 9.14356 18.2217 9.146 18.0024 9.146C17.7789 9.146 17.5188 9.14336 17.2331 9.14047C15.511 9.12302 12.8561 9.09611 11.6369 9.57978C10.6876 9.96055 9.95993 10.6883 9.58407 11.633C9.10312 12.8523 9.12874 15.5237 9.14526 17.2466C9.14794 17.5261 9.15038 17.7807 9.15038 18C9.15038 18.2236 9.14775 18.4837 9.14486 18.7695C9.12741 20.492 9.10051 23.1475 9.58407 24.367C9.96475 25.3165 10.6924 26.0443 11.6369 26.4202C12.8558 26.9013 15.5267 26.8756 17.2492 26.8591C17.5287 26.8564 17.7831 26.854 18.0024 26.854C18.226 26.854 18.486 26.8566 18.7717 26.8595C20.4938 26.877 23.1487 26.9039 24.368 26.4202Z" fill="#6FFFE5"/>
</g>
<defs>
<clipPath id="clip0_45_1156">
<rect width="36" height="36" fill="white"/>
</clipPath>
</defs>
</svg>
