<svg width="36" height="36" viewBox="0 0 36 36" fill="none" xmlns="http://www.w3.org/2000/svg">
<g clip-path="url(#clip0_45_1157)">
<path fill-rule="evenodd" clip-rule="evenodd" d="M18 36C27.9411 36 36 27.9411 36 18C36 8.05887 27.9411 0 18 0C8.05887 0 0 8.05887 0 18C0 27.9411 8.05887 36 18 36ZM9.65732 25.92H13.3891V13.9023H9.65732V25.92ZM9.36 10.0813C9.36 11.2746 10.3279 12.263 11.5212 12.263C12.7141 12.263 13.6824 11.2746 13.6824 10.0813C13.6824 9.50805 13.4547 8.95833 13.0494 8.55302C12.6441 8.1477 12.0944 7.92 11.5212 7.92C10.948 7.92 10.3983 8.1477 9.993 8.55302C9.5877 8.95833 9.36 9.50805 9.36 10.0813ZM23.6322 25.92H27.356H27.36V19.3185C27.36 16.0881 26.6657 13.601 22.8889 13.601C21.0733 13.601 19.8563 14.5974 19.358 15.5416H19.3058V13.9023H15.7267V25.92H19.4545V19.9694C19.4545 18.4024 19.7518 16.8877 21.692 16.8877C23.6041 16.8877 23.6322 18.6756 23.6322 20.0699V25.92Z" fill="#6FFFE5"/>
</g>
<defs>
<clipPath id="clip0_45_1157">
<rect width="36" height="36" fill="white"/>
</clipPath>
</defs>
</svg>
