<svg width="16" height="16" viewBox="0 0 16 16" fill="none" xmlns="http://www.w3.org/2000/svg">
<g opacity="0.5">
<path d="M8 2.5C4.68438 2.5 1.95 4.98125 1.55 8.1875C1.84375 8.06875 2.1625 8 2.5 8C3.32812 8 4 8.67188 4 9.5V13.5C4 14.3281 3.32812 15 2.5 15C1.11875 15 0 13.8813 0 12.5V12V10.5V9C0 4.58125 3.58125 1 8 1C12.4187 1 16 4.58125 16 9V10.5V12V12.5C16 13.8813 14.8813 15 13.5 15C12.6719 15 12 14.3281 12 13.5V9.5C12 8.67188 12.6719 8 13.5 8C13.8375 8 14.1562 8.06562 14.45 8.1875C14.05 4.98125 11.3156 2.5 8 2.5Z" fill="#6FFFE5"/>
</g>
</svg>
