<svg width="16" height="16" viewBox="0 0 16 16" fill="none" xmlns="http://www.w3.org/2000/svg">
<g opacity="0.5" clip-path="url(#clip0_45_1149)">
<path d="M5.50915 1.67354C5.29893 1.16489 4.7431 0.894152 4.21291 1.03875L1.80707 1.69507C1.33124 1.82634 1 2.25808 1 2.75032C1 9.51559 6.48544 15 13.2497 15C13.7419 15 14.1737 14.6688 14.3049 14.1929L14.9613 11.7871C15.1058 11.2569 14.8351 10.7011 14.3265 10.4908L11.7012 9.39663C11.2551 9.21101 10.7382 9.3392 10.4347 9.71351L9.33019 11.0621C7.40532 10.1514 5.84655 8.59263 4.9359 6.66776L6.28444 5.56534C6.65875 5.25871 6.78796 4.74493 6.60132 4.29883L5.5071 1.67354V1.67046L5.50915 1.67354Z" stroke="#6FFFE5" stroke-width="1.5" stroke-miterlimit="10" stroke-linejoin="round"/>
</g>
<defs>
<clipPath id="clip0_45_1149">
<rect width="16" height="16" fill="white"/>
</clipPath>
</defs>
</svg>
