<svg width="36" height="36" viewBox="0 0 36 36" fill="none" xmlns="http://www.w3.org/2000/svg">
<g clip-path="url(#clip0_45_1158)">
<path fill-rule="evenodd" clip-rule="evenodd" d="M18 36C27.9411 36 36 27.9411 36 18C36 8.05887 27.9411 0 18 0C8.05887 0 0 8.05887 0 18C0 27.9411 8.05887 36 18 36ZM21.9108 20.7C21.9994 19.8394 22.05 18.9366 22.05 18C22.05 17.0634 22.0036 16.1606 21.9108 15.3H14.0892C14.0006 16.1606 13.95 17.0634 13.95 18C13.95 18.9366 13.9964 19.8394 14.0892 20.7H21.9108ZM28.4583 15.3H23.265C23.3536 16.1691 23.4 17.0719 23.4 18C23.4 18.9281 23.3536 19.8309 23.265 20.7H28.4583C28.6819 19.8352 28.8 18.9323 28.8 18C28.8 17.0677 28.6819 16.1648 28.4583 15.3ZM23.092 13.95H28.0111C26.7497 10.8239 24.0623 8.42766 20.7591 7.55437C21.8348 8.99719 22.6702 11.2542 23.092 13.95ZM15.4139 9.95484C14.9288 11.0559 14.5322 12.4144 14.2748 13.95H21.7252C21.4678 12.4102 21.0755 11.0517 20.5861 9.95484C20.1431 8.95922 19.6495 8.23781 19.1728 7.78219C18.7003 7.335 18.308 7.2 18 7.2C17.692 7.2 17.2997 7.335 16.8272 7.78219C16.3505 8.23781 15.8569 8.95922 15.4139 9.95484ZM7.98469 13.95H12.908C13.3298 11.2542 14.1652 8.99719 15.2409 7.55437C11.9334 8.42766 9.25031 10.8239 7.98469 13.95ZM12.735 15.3H7.54172C7.31812 16.1648 7.2 17.0677 7.2 18C7.2 18.9323 7.31812 19.8352 7.54172 20.7H12.735C12.6464 19.8309 12.6 18.9281 12.6 18C12.6 17.0719 12.6464 16.1691 12.735 15.3ZM14.2748 22.05C14.5322 23.5856 14.9245 24.9441 15.4139 26.0409V26.0452C15.8569 27.0408 16.3505 27.7622 16.8272 28.2178C17.2997 28.665 17.692 28.8 18 28.8C18.308 28.8 18.7003 28.665 19.1728 28.2136C19.6495 27.758 20.1431 27.0366 20.5861 26.0409C21.0712 24.9441 21.4678 23.5856 21.7252 22.05H14.2748ZM15.2409 28.4456C14.1652 27.0028 13.3298 24.7458 12.908 22.05H7.98469C9.25031 25.1761 11.9334 27.5723 15.2409 28.4456ZM20.7633 28.4456C24.0666 27.5723 26.7497 25.1761 28.0153 22.05H23.0962C22.6702 24.7458 21.8391 27.0028 20.7633 28.4456Z" fill="#6FFFE5"/>
</g>
<defs>
<clipPath id="clip0_45_1158">
<rect width="36" height="36" fill="white"/>
</clipPath>
</defs>
</svg>
